<svg width="18" height="18" viewBox="0 0 18 18" fill="none" xmlns="http://www.w3.org/2000/svg">
<path d="M3.36343 18C2.78743 18 2.29714 17.8204 1.89257 17.4613C1.488 17.1021 1.28571 16.6672 1.28571 16.1566V2.02029H0V0.878884H5.14286V0H12.8571V0.878884H18V2.02029H16.7143V16.1566C16.7143 16.6817 16.5163 17.1204 16.1203 17.4727C15.7243 17.825 15.2297 18.0008 14.6366 18H3.36343ZM15.4286 2.02029H2.57143V16.1566C2.57143 16.3613 2.64557 16.5295 2.79386 16.6611C2.94214 16.7928 3.132 16.8586 3.36343 16.8586H14.6379C14.835 16.8586 15.0163 16.7855 15.1817 16.6394C15.3471 16.4933 15.4294 16.332 15.4286 16.1555V2.02029ZM6.18171 14.5758H7.46743V4.30311H6.18171V14.5758ZM10.5326 14.5758H11.8183V4.30311H10.5326V14.5758Z" fill="#FF4C51"/>
</svg>
