<svg width="30" height="30" viewBox="0 0 30 30" fill="none" xmlns="http://www.w3.org/2000/svg">
<path d="M15.3936 13.5032C14.3392 13.4921 13.3117 13.171 12.4403 12.5803C11.569 11.9895 10.8928 11.1555 10.497 10.1833C10.1012 9.21113 10.0033 8.14417 10.2158 7.11677C10.4283 6.08938 10.9416 5.14749 11.6912 4.40969C12.4407 3.67189 13.3929 3.17116 14.4279 2.97056C15.4629 2.76995 16.5345 2.87843 17.5076 3.28234C18.4808 3.68625 19.312 4.36753 19.8968 5.24041C20.4815 6.11329 20.7935 7.13874 20.7936 8.18765C20.7837 9.60406 20.2098 10.9588 19.1976 11.9552C18.1855 12.9515 16.8176 13.5081 15.3936 13.5032ZM15.3936 4.73723C14.7101 4.74826 14.0451 4.95996 13.4821 5.34574C12.9191 5.73151 12.4833 6.27417 12.2294 6.90554C11.9754 7.53691 11.9147 8.22885 12.0548 8.89444C12.195 9.56002 12.5297 10.1696 13.0169 10.6466C13.5042 11.1235 14.1223 11.4466 14.7936 11.5753C15.4649 11.704 16.1594 11.6324 16.79 11.3697C17.4205 11.107 17.959 10.6648 18.3377 10.0987C18.7164 9.53251 18.9185 8.86767 18.9186 8.18765C18.9087 7.26589 18.5324 6.38551 17.8718 5.73896C17.2113 5.0924 16.3203 4.73225 15.3936 4.73723Z" fill="#5C2D91"/>
<path d="M15.3938 13.5032C14.3393 13.4921 13.3118 13.171 12.4404 12.5803C11.5691 11.9895 10.893 11.1555 10.4971 10.1833C10.1013 9.21113 10.0034 8.14417 10.2159 7.11677C10.4284 6.08938 10.9418 5.14749 11.6913 4.40969C12.4408 3.67189 13.393 3.17116 14.428 2.97056C15.463 2.76995 16.5346 2.87843 17.5077 3.28234C18.4809 3.68625 19.3122 4.36753 19.8969 5.24041C20.4816 6.11329 20.7936 7.13874 20.7937 8.18765C20.7838 9.60406 20.2099 10.9588 19.1977 11.9552C18.1856 12.9515 16.8177 13.5081 15.3938 13.5032ZM15.3938 4.73723C14.7102 4.74826 14.0452 4.95996 13.4822 5.34574C12.9192 5.73151 12.4834 6.27417 12.2295 6.90554C11.9755 7.53691 11.9148 8.22885 12.0549 8.89444C12.1951 9.56002 12.5298 10.1696 13.0171 10.6466C13.5043 11.1235 14.1224 11.4466 14.7937 11.5753C15.465 11.704 16.1595 11.6324 16.7901 11.3697C17.4206 11.107 17.9591 10.6648 18.3378 10.0987C18.7165 9.53251 18.9186 8.86767 18.9187 8.18765C18.9088 7.26589 18.5325 6.38551 17.8719 5.73896C17.2114 5.0924 16.3204 4.73225 15.3938 4.73723ZM18.6656 14.7528C14.5074 14.033 10.2267 14.6881 6.47824 16.6179C6.21215 16.7648 5.99182 16.9817 5.84136 17.2449C5.69089 17.5081 5.61609 17.8073 5.62512 18.1099V21.4298C5.62512 21.6771 5.72389 21.9143 5.89971 22.0892C6.07552 22.2641 6.31397 22.3623 6.56261 22.3623C6.81125 22.3623 7.0497 22.2641 7.22551 22.0892C7.40133 21.9143 7.5001 21.6771 7.5001 21.4298V18.2312C10.976 16.4963 14.9287 15.9458 18.75 16.6645L18.6656 14.7528Z" fill="#5C2D91"/>
<path d="M29.0625 18.8094H22.7814V17.4292C22.7814 17.1819 22.6826 16.9447 22.5068 16.7698C22.331 16.595 22.0925 16.4967 21.8439 16.4967C21.5952 16.4967 21.3568 16.595 21.181 16.7698C21.0052 16.9447 20.9064 17.1819 20.9064 17.4292V18.8094H14.0627C13.8141 18.8094 13.5756 18.9077 13.3998 19.0826C13.224 19.2574 13.1252 19.4946 13.1252 19.742V29.0674C13.1252 29.3147 13.224 29.5519 13.3998 29.7268C13.5756 29.9017 13.8141 30 14.0627 30H29.0625C29.3112 30 29.5496 29.9017 29.7255 29.7268C29.9013 29.5519 30 29.3147 30 29.0674V19.742C30 19.4946 29.9013 19.2574 29.7255 19.0826C29.5496 18.9077 29.3112 18.8094 29.0625 18.8094ZM28.1251 28.1349H15.0002V20.6745H20.9064V21.0568C20.9064 21.3042 21.0052 21.5414 21.181 21.7163C21.3568 21.8911 21.5952 21.9894 21.8439 21.9894C22.0925 21.9894 22.331 21.8911 22.5068 21.7163C22.6826 21.5414 22.7814 21.3042 22.7814 21.0568V20.6745H28.1251V28.1349Z" fill="#5C2D91"/>
<path d="M18.5716 23.8639H24.1591V25.1694H18.5716V23.8639ZM8.2874 9.70783C5.69191 9.75102 3.14143 10.3893 0.834365 11.5729C0.583458 11.7048 0.373287 11.9019 0.226324 12.1434C0.0793606 12.3849 0.00113141 12.6615 0 12.9438V15.8346C0 16.082 0.0987708 16.3192 0.274584 16.4941C0.450397 16.6689 0.688851 16.7672 0.937489 16.7672C1.18613 16.7672 1.42458 16.6689 1.60039 16.4941C1.77621 16.3192 1.87498 16.082 1.87498 15.8346V13.1303C4.07929 12.0388 6.51982 11.504 8.98114 11.5729C8.65936 10.9884 8.42562 10.36 8.2874 9.70783ZM29.1653 11.5636C27.0961 10.4839 24.8221 9.84849 22.4904 9.6985C22.3526 10.3494 22.1221 10.9774 21.806 11.5636C24.0025 11.6162 26.1603 12.1512 28.1247 13.1303V15.8346C28.1247 16.082 28.2234 16.3192 28.3992 16.4941C28.5751 16.6689 28.8135 16.7672 29.0621 16.7672C29.3108 16.7672 29.5492 16.6689 29.725 16.4941C29.9009 16.3192 29.9996 16.082 29.9996 15.8346V12.9438C30.0002 12.6599 29.9228 12.3813 29.7757 12.1381C29.6287 11.8948 29.4176 11.6962 29.1653 11.5636ZM8.11865 8.18778V7.56297C7.38424 7.46521 6.71603 7.08946 6.25311 6.51395C5.7902 5.93844 5.56826 5.20751 5.6335 4.47332C5.69873 3.73913 6.0461 3.05825 6.60331 2.57242C7.16052 2.08659 7.88463 1.83325 8.62489 1.86513C9.39487 1.86374 10.1349 2.16155 10.6874 2.69509C11.175 2.29551 11.7103 1.95724 12.2811 1.68794C11.6432 0.958372 10.7981 0.438182 9.85711 0.195937C8.91611 -0.0463091 7.9234 0.000760472 7.00983 0.330941C6.09626 0.661123 5.3047 1.25892 4.7395 2.04553C4.1743 2.83215 3.86198 3.77066 3.8437 4.73736C3.86338 5.92054 4.32576 7.05392 5.14053 7.91613C5.95531 8.77834 7.06394 9.30744 8.2499 9.40009C8.17028 9.00063 8.12635 8.59494 8.11865 8.18778ZM21.3466 3.73728e-05C20.7024 0.000178455 20.0646 0.128081 19.4706 0.376268C18.8767 0.624454 18.3384 0.987943 17.8873 1.44548C18.5205 1.6753 19.1196 1.98897 19.6685 2.37803C20.1062 2.07582 20.6181 1.89742 21.1497 1.86187C21.6812 1.82632 22.2126 1.93494 22.687 2.17615C23.1613 2.41736 23.561 2.78212 23.8434 3.23153C24.1258 3.68095 24.2802 4.19817 24.2903 4.72804C24.2844 5.27231 24.1237 5.80378 23.8267 6.26094C23.5297 6.71809 23.1086 7.08223 22.6122 7.31119C22.6503 7.59871 22.6691 7.88844 22.6685 8.17846C22.6655 8.55329 22.6342 8.92736 22.5747 9.29751C23.596 9.03633 24.5019 8.44663 25.1513 7.62019C25.8006 6.79376 26.1572 5.77695 26.1653 4.72804C26.1529 3.46659 25.6392 2.26127 24.7363 1.37539C23.8334 0.489504 22.6148 -0.00495046 21.3466 3.73728e-05Z" fill="#5C2D91"/>
</svg>
