<svg width="18" height="18" viewBox="0 0 18 18" fill="none" xmlns="http://www.w3.org/2000/svg">
<path d="M17 8.99954H6.3146M2.54292 8.99954H1M2.54292 8.99954C2.54292 8.47319 2.74156 7.96839 3.09514 7.59619C3.44872 7.224 3.92828 7.01491 4.42832 7.01491C4.92837 7.01491 5.40793 7.224 5.76151 7.59619C6.11509 7.96839 6.31373 8.47319 6.31373 8.99954C6.31373 9.5259 6.11509 10.0307 5.76151 10.4029C5.40793 10.7751 4.92837 10.9842 4.42832 10.9842C3.92828 10.9842 3.44872 10.7751 3.09514 10.4029C2.74156 10.0307 2.54292 9.5259 2.54292 8.99954ZM17 15.0145H12.0288M12.0288 15.0145C12.0288 15.5409 11.8296 16.0463 11.476 16.4186C11.1223 16.7909 10.6426 17 10.1425 17C9.64245 17 9.16289 16.79 8.8093 16.4178C8.45572 16.0456 8.25708 15.5408 8.25708 15.0145M12.0288 15.0145C12.0288 14.488 11.8296 13.9835 11.476 13.6112C11.1223 13.239 10.6426 13.0298 10.1425 13.0298C9.64245 13.0298 9.16289 13.2389 8.8093 13.6111C8.45572 13.9833 8.25708 14.4881 8.25708 15.0145M8.25708 15.0145H1M17 2.98464H14.3146M10.5429 2.98464H1M10.5429 2.98464C10.5429 2.45828 10.7416 1.95348 11.0951 1.58129C11.4487 1.2091 11.9283 1 12.4283 1C12.6759 1 12.9211 1.05133 13.1498 1.15107C13.3786 1.25081 13.5864 1.397 13.7615 1.58129C13.9366 1.76558 14.0755 1.98436 14.1702 2.22515C14.265 2.46594 14.3137 2.72401 14.3137 2.98464C14.3137 3.24526 14.265 3.50334 14.1702 3.74413C14.0755 3.98491 13.9366 4.2037 13.7615 4.38799C13.5864 4.57228 13.3786 4.71847 13.1498 4.8182C12.9211 4.91794 12.6759 4.96927 12.4283 4.96927C11.9283 4.96927 11.4487 4.76018 11.0951 4.38799C10.7416 4.0158 10.5429 3.511 10.5429 2.98464Z" stroke="#444050" stroke-width="1.5" stroke-miterlimit="10" stroke-linecap="round"/>
</svg>
