<svg width="28" height="30" viewBox="0 0 28 30" fill="none" xmlns="http://www.w3.org/2000/svg">
<path d="M9.53167 24.6663C9.77324 23.9594 10.2204 23.3473 10.8117 22.9145C11.403 22.4816 12.1093 22.2492 12.8333 22.2492C13.5574 22.2492 14.2637 22.4816 14.855 22.9145C15.4462 23.3473 15.8934 23.9594 16.135 24.6663H28V27.0829H16.135C15.8934 27.7898 15.4462 28.4018 14.855 28.8347C14.2637 29.2676 13.5574 29.5 12.8333 29.5C12.1093 29.5 11.403 29.2676 10.8117 28.8347C10.2204 28.4018 9.77324 27.7898 9.53167 27.0829H0V24.6663H9.53167ZM16.5317 13.7917C16.7732 13.0848 17.2204 12.4727 17.8117 12.0399C18.403 11.607 19.1093 11.3746 19.8333 11.3746C20.5574 11.3746 21.2637 11.607 21.855 12.0399C22.4462 12.4727 22.8934 13.0848 23.135 13.7917H28V16.2083H23.135C22.8934 16.9152 22.4462 17.5273 21.855 17.9601C21.2637 18.393 20.5574 18.6254 19.8333 18.6254C19.1093 18.6254 18.403 18.393 17.8117 17.9601C17.2204 17.5273 16.7732 16.9152 16.5317 16.2083H0V13.7917H16.5317ZM4.865 2.91712C5.10657 2.21018 5.55377 1.59816 6.14504 1.16529C6.73631 0.732427 7.44259 0.5 8.16667 0.5C8.89074 0.5 9.59702 0.732427 10.1883 1.16529C10.7796 1.59816 11.2268 2.21018 11.4683 2.91712H28V5.33369H11.4683C11.2268 6.04064 10.7796 6.65266 10.1883 7.08552C9.59702 7.51839 8.89074 7.75081 8.16667 7.75081C7.44259 7.75081 6.73631 7.51839 6.14504 7.08552C5.55377 6.65266 5.10657 6.04064 4.865 5.33369H0V2.91712H4.865Z" fill="#0078D4"/>
</svg>
