<svg width="13" height="14" viewBox="0 0 13 14" fill="none" xmlns="http://www.w3.org/2000/svg">
<path d="M6.5 0.5C6.67834 0.5 6.84937 0.570843 6.97547 0.696945C7.10157 0.823047 7.17241 0.994079 7.17241 1.17241V6.32759H12.3276C12.5059 6.32759 12.677 6.39843 12.8031 6.52453C12.9292 6.65063 13 6.82166 13 7C13 7.17834 12.9292 7.34937 12.8031 7.47547C12.677 7.60157 12.5059 7.67241 12.3276 7.67241H7.17241V12.8276C7.17241 13.0059 7.10157 13.177 6.97547 13.3031C6.84937 13.4292 6.67834 13.5 6.5 13.5C6.32166 13.5 6.15063 13.4292 6.02453 13.3031C5.89843 13.177 5.82759 13.0059 5.82759 12.8276V7.67241H0.672414C0.494079 7.67241 0.323047 7.60157 0.196945 7.47547C0.0708433 7.34937 0 7.17834 0 7C0 6.82166 0.0708433 6.65063 0.196945 6.52453C0.323047 6.39843 0.494079 6.32759 0.672414 6.32759H5.82759V1.17241C5.82759 0.994079 5.89843 0.823047 6.02453 0.696945C6.15063 0.570843 6.32166 0.5 6.5 0.5Z" fill="white"/>
</svg>
