<svg width="123" height="137" viewBox="0 0 123 137" fill="none" xmlns="http://www.w3.org/2000/svg">
<path d="M2.0669 124.311C2.0669 124.311 6.42315 126.711 18.3363 126.889L16.2915 136.046C16.2915 136.046 5.08961 136.224 1 133.735L2.0669 124.311Z" stroke="#1A1818" stroke-width="0.6" stroke-miterlimit="10"/>
<path d="M2.15587 124.044C2.15587 124.044 1.80034 122.977 2.33371 119.244C2.86419 115.531 12.3633 36.0394 22.4334 20.8111C22.446 20.7918 22.4642 20.7769 22.4857 20.7683C22.507 20.7598 22.5306 20.758 22.553 20.7631C22.5754 20.7685 22.5958 20.7805 22.6111 20.7977C22.6265 20.815 22.6362 20.8364 22.639 20.8593C23.1335 25.1321 28.4529 74.0138 24.2042 99.5068C19.7591 126.178 18.3371 126.712 18.3371 126.712" stroke="#1A1818" stroke-width="0.6" stroke-miterlimit="10"/>
<path d="M120.933 124.489C120.933 124.489 116.577 126.889 104.664 127.067L106.708 136.224C106.708 136.224 117.91 136.402 122 133.913L120.933 124.489Z" stroke="#1A1818" stroke-width="0.6" stroke-miterlimit="10"/>
<path d="M120.844 124.221C120.844 124.221 121.2 123.154 120.666 119.421C120.134 115.696 110.755 35.7071 100.648 20.8441C100.642 20.8358 100.634 20.8296 100.625 20.8259C100.615 20.8224 100.605 20.8218 100.596 20.8241C100.586 20.8265 100.577 20.8317 100.571 20.8392C100.564 20.8467 100.56 20.856 100.559 20.8659C100.223 23.7379 94.4782 73.7837 98.7958 99.6833C103.241 126.355 104.663 126.888 104.663 126.888" stroke="#1A1818" stroke-width="0.6" stroke-miterlimit="10"/>
<path d="M24.2044 101.106L23.3153 128.133C23.3153 128.133 46.0748 135.068 62.4333 134.357C78.7917 133.645 99.7733 128.311 99.7733 128.311L98.8842 101.284" stroke="#1A1818" stroke-width="0.6" stroke-miterlimit="10"/>
<path d="M70.0797 40.4736H89.6387V60.5661L79.8592 63.233L70.2576 60.5661L70.0797 40.4736Z" stroke="#1A1818" stroke-width="0.6" stroke-miterlimit="10"/>
<path d="M22.782 20.7367C22.782 20.7367 24.382 18.7809 44.4746 9.35693" stroke="#1A1818" stroke-width="0.6" stroke-miterlimit="10"/>
<path d="M100.484 20.7366C100.484 20.7366 99.062 18.9585 78.9695 9.53467" stroke="#1A1818" stroke-width="0.6" stroke-miterlimit="10"/>
<path d="M60.4773 16.2917C58.5215 12.5581 52.4767 24.8264 52.4767 24.8264C46.2535 18.0696 44.4753 9.35705 44.4753 9.35705C46.2535 7.93462 47.3202 4.55669 48.3871 2.77812C49.454 0.999543 49.9872 1 49.9872 1H73.1024C73.1024 1 73.6358 1 74.7026 2.77812C75.7693 4.55623 76.8361 7.93462 78.6143 9.35705C78.6143 9.35705 76.8364 18.0696 70.6137 24.8264C70.6137 24.8264 64.5681 12.5576 62.6131 16.2917H60.4773Z" stroke="#1A1818" stroke-width="0.6" stroke-miterlimit="10"/>
<path d="M60.833 134.179L61.2317 68.0975L61.2664 62.3357L61.5442 16.2915" stroke="#1A1818" stroke-width="0.6" stroke-miterlimit="10"/>
<path d="M50.1642 1.17773C50.1642 1.17773 47.6749 7.04483 59.2325 15.0468L61.0882 16.2916" stroke="#1A1818" stroke-width="0.6" stroke-miterlimit="10"/>
<path d="M73.1016 1.17773C73.1016 1.17773 75.6207 7.04483 64.0631 15.0468L62.2075 16.2916" stroke="#1A1818" stroke-width="0.6" stroke-miterlimit="10"/>
</svg>
