<svg width="11" height="12" viewBox="0 0 11 12" fill="none" xmlns="http://www.w3.org/2000/svg">
<path d="M10.4119 0C10.2608 0.00200513 10.1164 0.0638237 10.0095 0.172284C9.90269 0.280745 9.84179 0.427272 9.83981 0.580645V2.46194L9.19911 1.81161C8.53629 1.13314 7.7136 0.637902 6.80917 0.372944C5.90473 0.107985 4.94859 0.082098 4.03152 0.297741C3.11446 0.513384 2.26693 0.963397 1.56942 1.60504C0.871911 2.24669 0.347579 3.05867 0.0462188 3.96387C0.0148376 4.03766 -0.0008964 4.11733 3.94247e-05 4.19769C0.000975249 4.27806 0.01856 4.35732 0.0516507 4.43034C0.0847414 4.50336 0.132598 4.56849 0.19211 4.62151C0.251622 4.67452 0.321458 4.71423 0.39708 4.73806C0.460126 4.74968 0.524718 4.74968 0.587765 4.73806C0.707094 4.73683 0.823142 4.69825 0.920065 4.62759C1.01699 4.55692 1.09006 4.45761 1.12931 4.34323C1.34162 3.70036 1.69953 3.11699 2.17427 2.64C2.99769 1.80746 4.11257 1.34002 5.27481 1.34002C6.43704 1.34002 7.55193 1.80746 8.37535 2.64L9.01605 3.29032H7.17784C7.02613 3.29032 6.88062 3.3515 6.77334 3.46039C6.66606 3.56928 6.60579 3.71697 6.60579 3.87097C6.60579 4.02496 6.66606 4.17265 6.77334 4.28155C6.88062 4.39044 7.02613 4.45161 7.17784 4.45161H10.4119C10.4873 4.45265 10.5621 4.43835 10.632 4.40954C10.7019 4.38072 10.7653 4.33799 10.8187 4.28387C10.872 4.22974 10.9141 4.16531 10.9425 4.0944C10.9709 4.02348 10.9849 3.94751 10.9839 3.87097V0.580645C10.9839 0.426648 10.9237 0.278959 10.8164 0.170067C10.7091 0.0611749 10.5636 0 10.4119 0ZM10.6026 7.30065C10.5291 7.27135 10.4506 7.25758 10.3717 7.26018C10.2928 7.26277 10.2153 7.28168 10.1439 7.31575C10.0725 7.34981 10.0087 7.39832 9.95642 7.45829C9.90413 7.51826 9.86445 7.58843 9.83981 7.66452C9.6275 8.30738 9.2696 8.89075 8.79486 9.36774C7.97143 10.2003 6.85655 10.6677 5.69431 10.6677C4.53208 10.6677 3.4172 10.2003 2.59377 9.36774L1.95307 8.71742H3.83704C3.98876 8.71742 4.13426 8.65624 4.24154 8.54735C4.34883 8.43846 4.4091 8.29077 4.4091 8.13677C4.4091 7.98278 4.34883 7.83509 4.24154 7.7262C4.13426 7.6173 3.98876 7.55613 3.83704 7.55613H0.60302C0.527612 7.55509 0.452764 7.5694 0.382895 7.59821C0.313027 7.62702 0.249555 7.66975 0.196229 7.72388C0.142903 7.778 0.100804 7.84243 0.0724189 7.91334C0.0440337 7.98426 0.0299379 8.06023 0.030964 8.13677V11.4194C0.030964 11.5734 0.0912339 11.721 0.198515 11.8299C0.305796 11.9388 0.451301 12 0.60302 12C0.754738 12 0.900243 11.9388 1.00752 11.8299C1.1148 11.721 1.17508 11.5734 1.17508 11.4194V9.53806L1.81578 10.1884C2.4786 10.8669 3.30128 11.3621 4.20572 11.6271C5.11015 11.892 6.0663 11.9179 6.98336 11.7023C7.90042 11.4866 8.74796 11.0366 9.44547 10.395C10.143 9.75331 10.6673 8.94133 10.9687 8.03613C10.9936 7.9635 11.0038 7.88653 10.9988 7.80981C10.9937 7.73308 10.9735 7.65817 10.9393 7.58954C10.9052 7.52091 10.8578 7.45996 10.7999 7.41033C10.742 7.3607 10.6749 7.32339 10.6026 7.30065Z" fill="#28C76F"/>
</svg>
