<svg width="11" height="14" viewBox="0 0 11 14" fill="none" xmlns="http://www.w3.org/2000/svg">
<path d="M1.43359 10.3281V12.043H9.56641V10.3281H10.5996V12.1426C10.5996 12.3638 10.5252 12.5777 10.3896 12.748L10.3271 12.8184C10.1524 12.998 9.91529 13.0995 9.66699 13.0996H1.33301C1.1156 13.0987 0.906668 13.0205 0.741211 12.8799L0.673828 12.8164C0.540131 12.678 0.453297 12.5021 0.419922 12.3135L0.400391 12.3262V10.3281H1.43359ZM5.57129 0.930664L9.73828 5.21582L9.80664 5.28613L9.73828 5.35547L9.15137 5.95801L9.0791 6.03125L9.00781 5.95801L6.0166 2.88477V10.5283H4.9834V2.88477L1.99316 5.95801L1.9209 6.03125L1.84961 5.95801L1.26172 5.35547L1.19336 5.28613L1.26172 5.21582L5.42871 0.930664L5.5 0.856445L5.57129 0.930664Z" fill="white" stroke="#1C98D8" stroke-width="0.2"/>
</svg>
