<svg width="18" height="19" viewBox="0 0 18 19" fill="none" xmlns="http://www.w3.org/2000/svg">
<path d="M4.29155 3.1C4.29155 3.52435 4.12298 3.93131 3.82292 4.23137C3.52287 4.53143 3.1159 4.7 2.69155 4.7C2.26721 4.7 1.86024 4.53143 1.56018 4.23137C1.26012 3.93131 1.09155 3.52435 1.09155 3.1C1.09155 2.67565 1.26012 2.26869 1.56018 1.96863C1.86024 1.66857 2.26721 1.5 2.69155 1.5C3.1159 1.5 3.52287 1.66857 3.82292 1.96863C4.12298 2.26869 4.29155 2.67565 4.29155 3.1ZM17.0916 3.1C17.0916 3.52435 16.923 3.93131 16.6229 4.23137C16.3229 4.53143 15.9159 4.7 15.4916 4.7C15.0672 4.7 14.6602 4.53143 14.3602 4.23137C14.0601 3.93131 13.8916 3.52435 13.8916 3.1C13.8916 2.67565 14.0601 2.26869 14.3602 1.96863C14.6602 1.66857 15.0672 1.5 15.4916 1.5C15.9159 1.5 16.3229 1.66857 16.6229 1.96863C16.923 2.26869 17.0916 2.67565 17.0916 3.1ZM17.0916 15.9C17.0916 16.3243 16.923 16.7313 16.6229 17.0314C16.3229 17.3314 15.9159 17.5 15.4916 17.5C15.0672 17.5 14.6602 17.3314 14.3602 17.0314C14.0601 16.7313 13.8916 16.3243 13.8916 15.9C13.8916 15.4757 14.0601 15.0687 14.3602 14.7686C14.6602 14.4686 15.0672 14.3 15.4916 14.3C15.9159 14.3 16.3229 14.4686 16.6229 14.7686C16.923 15.0687 17.0916 15.4757 17.0916 15.9ZM4.29155 15.9C4.29155 16.3243 4.12298 16.7313 3.82292 17.0314C3.52287 17.3314 3.1159 17.5 2.69155 17.5C2.26721 17.5 1.86024 17.3314 1.56018 17.0314C1.26012 16.7313 1.09155 16.3243 1.09155 15.9C1.09155 15.4757 1.26012 15.0687 1.56018 14.7686C1.86024 14.4686 2.26721 14.3 2.69155 14.3C3.1159 14.3 3.52287 14.4686 3.82292 14.7686C4.12298 15.0687 4.29155 15.4757 4.29155 15.9ZM12.6916 7.1C12.6916 6.7272 12.6916 6.5408 12.6308 6.3936C12.5494 6.19797 12.3937 6.04261 12.198 5.9616C12.0508 5.9 11.8644 5.9 11.4916 5.9H6.69155C6.31875 5.9 6.13235 5.9 5.98515 5.9608C5.78952 6.04217 5.63416 6.19782 5.55315 6.3936C5.49155 6.5408 5.49155 6.7272 5.49155 7.1C5.49155 7.4728 5.49155 7.6592 5.55235 7.8064C5.63372 8.00203 5.78937 8.1574 5.98515 8.2384C6.13235 8.3 6.31875 8.3 6.69155 8.3H11.4916C11.8644 8.3 12.0508 8.3 12.198 8.2392C12.3936 8.15783 12.5489 8.00218 12.63 7.8064C12.6916 7.6592 12.6916 7.4728 12.6916 7.1ZM12.6916 11.9C12.6916 11.5272 12.6916 11.3408 12.6308 11.1936C12.5494 10.998 12.3937 10.8426 12.198 10.7616C12.0508 10.7 11.8644 10.7 11.4916 10.7H6.69155C6.31875 10.7 6.13235 10.7 5.98515 10.7608C5.78952 10.8422 5.63416 10.9978 5.55315 11.1936C5.49155 11.3408 5.49155 11.5272 5.49155 11.9C5.49155 12.2728 5.49155 12.4592 5.55235 12.6064C5.63372 12.802 5.78937 12.9574 5.98515 13.0384C6.13235 13.1 6.31875 13.1 6.69155 13.1H11.4916C11.8644 13.1 12.0508 13.1 12.198 13.0392C12.3936 12.9578 12.5489 12.8022 12.63 12.6064C12.6916 12.4592 12.6916 12.2728 12.6916 11.9Z" stroke="white" stroke-width="1.5" stroke-linecap="round" stroke-linejoin="round"/>
</svg>
