<svg width="25" height="24" viewBox="0 0 25 24" fill="none" xmlns="http://www.w3.org/2000/svg">
<path fill-rule="evenodd" clip-rule="evenodd" d="M4.35002 11.9999C4.35002 9.99105 4.35029 8.45408 4.41141 7.26218C4.47333 6.05464 4.59509 5.30094 4.78923 4.81558C4.95864 4.39205 5.16921 4.20029 5.4956 4.07336C5.89632 3.91752 6.50387 3.8499 7.50002 3.8499C8.47383 3.8499 9.15326 3.91163 9.62813 4.01716C10.1015 4.12235 10.3045 4.25647 10.399 4.35094C10.4832 4.43519 10.5546 4.56035 10.5991 4.82714C10.6476 5.11829 10.65 5.47834 10.65 5.9999C10.65 6.46934 11.0306 6.8499 11.5 6.8499C11.9695 6.8499 12.35 6.46934 12.35 5.9999L12.35 5.95733V5.95731C12.3501 5.49102 12.3502 4.99293 12.276 4.54766C12.1954 4.06445 12.0168 3.56462 11.6011 3.14886C11.1955 2.74333 10.6486 2.50245 9.99692 2.35764C9.34679 2.21317 8.52622 2.1499 7.50002 2.1499C6.49618 2.1499 5.60373 2.20728 4.87945 2.48895C4.08084 2.79952 3.54141 3.35775 3.21082 4.18422C2.90496 4.94886 2.77671 5.94517 2.71364 7.17512C2.65002 8.41562 2.65002 9.99574 2.65002 11.9754V11.9756V11.9999V12.0242V12.0244C2.65002 14.0041 2.65002 15.5842 2.71364 16.8247C2.77671 18.0546 2.90496 19.0509 3.21082 19.8156C3.54141 20.642 4.08084 21.2003 4.87945 21.5109C5.60373 21.7925 6.49618 21.8499 7.50002 21.8499C8.52622 21.8499 9.34679 21.7866 9.99692 21.6422C10.6486 21.4974 11.1955 21.2565 11.6011 20.8509C12.0168 20.4352 12.1954 19.9354 12.276 19.4521C12.3502 19.0069 12.3501 18.5088 12.35 18.0425V18.0425L12.35 17.9999C12.35 17.5305 11.9695 17.1499 11.5 17.1499C11.0306 17.1499 10.65 17.5305 10.65 17.9999C10.65 18.5215 10.6476 18.8815 10.5991 19.1727C10.5546 19.4395 10.4832 19.5646 10.399 19.6489C10.3045 19.7433 10.1015 19.8775 9.62813 19.9826C9.15326 20.0882 8.47383 20.1499 7.50002 20.1499C6.50387 20.1499 5.89632 20.0823 5.4956 19.9264C5.16921 19.7995 4.95864 19.6078 4.78923 19.1842C4.59509 18.6989 4.47333 17.9452 4.41141 16.7376C4.35029 15.5457 4.35002 14.0088 4.35002 11.9999ZM18.1011 7.39886C17.7691 7.06692 17.2309 7.06692 16.899 7.39886C16.567 7.73081 16.567 8.269 16.899 8.60094L19.4479 11.1499H11.5C11.0306 11.1499 10.65 11.5305 10.65 11.9999C10.65 12.4693 11.0306 12.8499 11.5 12.8499H19.4479L16.899 15.3989C16.567 15.7308 16.567 16.269 16.899 16.6009C17.2309 16.9329 17.7691 16.9329 18.1011 16.6009L22.1011 12.6009C22.433 12.269 22.433 11.7308 22.1011 11.3989L18.1011 7.39886Z" fill="#FF3B30"/>
</svg>
