<svg width="16" height="15" viewBox="0 0 16 15" fill="none" xmlns="http://www.w3.org/2000/svg">
<path d="M0 1.60957V5.43046C0 6.14688 0.39801 6.7041 0.955224 6.7041H15.0448C15.5224 6.7041 16 6.14688 16 5.43046V1.60957C15.9204 0.893151 15.5224 0.335938 14.9652 0.335938H0.955224C0.39801 0.335938 0 0.893151 0 1.60957ZM6.36816 4.31604V2.724H5.57214V4.31604H6.36816ZM2.38806 4.31604H3.9801V2.724H2.38806V4.31604ZM14.3284 5.11206H1.59204V1.92798H14.3284V5.11206ZM0 9.56977V13.3907C0 14.1071 0.39801 14.6643 0.955224 14.6643H15.0448C15.5224 14.6643 16 14.1071 16 13.3907V9.56977C16 8.85335 15.602 8.29614 15.0448 8.29614H0.955224C0.39801 8.29614 0 8.85335 0 9.56977ZM6.36816 12.2762V10.6842H5.57214V12.2762H6.36816ZM2.38806 12.2762H3.9801V10.6842H2.38806V12.2762ZM14.3284 13.0723H1.59204V9.88818H14.3284V13.0723Z" fill="white"/>
</svg>
