<svg width="16" height="17" viewBox="0 0 16 17" fill="none" xmlns="http://www.w3.org/2000/svg">
<path d="M15.7887 10.592L14.5532 9.59189C14.6116 9.25258 14.6418 8.90613 14.6418 8.55968C14.6418 8.21322 14.6116 7.86677 14.5532 7.52746L15.7887 6.52739C15.8819 6.45186 15.9486 6.35126 15.98 6.23898C16.0113 6.12669 16.0058 6.00803 15.9642 5.89878L15.9472 5.85234C15.607 4.95232 15.0977 4.11799 14.4438 3.38967L14.4098 3.35217C14.3305 3.26387 14.2247 3.20039 14.1066 3.1701C13.9884 3.13982 13.8632 3.14414 13.7477 3.18252L12.2141 3.69862C11.6482 3.25931 11.0163 2.91286 10.3334 2.66998L10.0373 1.15202C10.0149 1.0378 9.95639 0.932722 9.86946 0.850744C9.78253 0.768766 9.67131 0.713768 9.55058 0.693058L9.49965 0.684129C8.51686 0.51626 7.48314 0.51626 6.50035 0.684129L6.44942 0.693058C6.32869 0.713768 6.21747 0.768766 6.13054 0.850744C6.04361 0.932722 5.98509 1.0378 5.96275 1.15202L5.6647 2.67712C4.9873 2.92006 4.35647 3.26633 3.79722 3.7022L2.2523 3.18252C2.13679 3.14384 2.01159 3.13935 1.89332 3.16966C1.77506 3.19996 1.66933 3.26362 1.59019 3.35217L1.55624 3.38967C0.903079 4.11851 0.39382 4.9527 0.0528215 5.85234L0.0358444 5.89878C-0.0490412 6.12201 0.0207537 6.37202 0.211275 6.52739L1.46192 7.53818C1.40345 7.87391 1.37515 8.21679 1.37515 8.55789C1.37515 8.90077 1.40345 9.24365 1.46192 9.5776L0.211275 10.5884C0.118081 10.6639 0.0513812 10.7645 0.0200443 10.8768C-0.0112925 10.9891 -0.00578166 11.1078 0.0358444 11.217L0.0528215 11.2634C0.39425 12.1635 0.899791 12.9939 1.55624 13.7261L1.59019 13.7636C1.66952 13.8519 1.77525 13.9154 1.89345 13.9457C2.01164 13.976 2.13676 13.9716 2.2523 13.9333L3.79722 13.4136C4.35935 13.8511 4.9875 14.1976 5.6647 14.4387L5.96275 15.9638C5.98509 16.078 6.04361 16.1831 6.13054 16.265C6.21747 16.347 6.32869 16.402 6.44942 16.4227L6.50035 16.4317C7.49217 16.6004 8.50783 16.6004 9.49965 16.4317L9.55058 16.4227C9.67131 16.402 9.78253 16.347 9.86946 16.265C9.95639 16.1831 10.0149 16.078 10.0373 15.9638L10.3334 14.4458C11.016 14.2036 11.6515 13.856 12.2141 13.4172L13.7477 13.9333C13.8632 13.9719 13.9884 13.9764 14.1067 13.9461C14.2249 13.9158 14.3307 13.8522 14.4098 13.7636L14.4438 13.7261C15.1002 12.9921 15.6058 12.1635 15.9472 11.2634L15.9642 11.217C16.049 10.9973 15.9792 10.7473 15.7887 10.592ZM13.2139 7.73819C13.261 8.00785 13.2855 8.28466 13.2855 8.56146C13.2855 8.83827 13.261 9.11507 13.2139 9.38473L13.0894 10.1009L14.4985 11.242C14.2849 11.7079 14.0152 12.149 13.6949 12.5564L11.9444 11.9688L11.352 12.4296C10.9012 12.7796 10.3994 13.0546 9.85616 13.2475L9.13747 13.5029L8.79981 15.2351C8.26705 15.2923 7.72918 15.2923 7.19642 15.2351L6.85876 13.4993L6.14572 13.2404C5.60811 13.0475 5.10823 12.7725 4.66117 12.4242L4.06885 11.9617L2.30701 12.5546C1.98633 12.1456 1.71847 11.7045 1.50342 11.2402L2.92761 10.0884L2.805 9.37402C2.75973 9.10793 2.73521 8.83291 2.73521 8.56146C2.73521 8.28823 2.75784 8.015 2.805 7.74891L2.92761 7.03457L1.50342 5.8827C1.71658 5.4166 1.98633 4.97728 2.30701 4.56833L4.06885 5.16123L4.66117 4.69869C5.10823 4.35046 5.60811 4.07544 6.14572 3.88257L6.86065 3.62719L7.1983 1.89136C7.72837 1.83421 8.26975 1.83421 8.8017 1.89136L9.13935 3.62362L9.85805 3.87899C10.3994 4.07186 10.9031 4.34688 11.3539 4.69691L11.9462 5.15765L13.6968 4.57011C14.0174 4.97907 14.2853 5.42017 14.5004 5.88449L13.0912 7.02564L13.2139 7.73819ZM8.00189 5.2398C6.16836 5.2398 4.68192 6.64704 4.68192 8.38288C4.68192 10.1187 6.16836 11.526 8.00189 11.526C9.83542 11.526 11.3219 10.1187 11.3219 8.38288C11.3219 6.64704 9.83542 5.2398 8.00189 5.2398ZM9.49587 9.79726C9.29992 9.9833 9.06705 10.1308 8.81066 10.2314C8.55426 10.3319 8.2794 10.3834 8.00189 10.383C7.43787 10.383 6.90781 10.1741 6.5079 9.79726C6.31139 9.61175 6.15556 9.39129 6.04937 9.14855C5.94319 8.90582 5.88875 8.6456 5.88918 8.38288C5.88918 7.84891 6.10988 7.34709 6.5079 6.96849C6.90781 6.5899 7.43787 6.38274 8.00189 6.38274C8.5659 6.38274 9.09597 6.5899 9.49587 6.96849C9.69239 7.154 9.84822 7.37447 9.9544 7.6172C10.0606 7.85994 10.115 8.12015 10.1146 8.38288C10.1146 8.91684 9.89389 9.41866 9.49587 9.79726Z" fill="#6D6B77"/>
</svg>
