<svg width="13" height="9" viewBox="0 0 13 9" fill="none" xmlns="http://www.w3.org/2000/svg">
<path d="M6.90498 8.05817L12.8455 1.82342C12.9447 1.71939 13 1.58118 13 1.43746C13 1.29373 12.9447 1.15552 12.8455 1.05149L12.8388 1.04478C12.7907 0.994171 12.7328 0.953874 12.6687 0.926338C12.6046 0.898801 12.5355 0.884601 12.4657 0.884601C12.3959 0.884601 12.3268 0.898801 12.2627 0.926338C12.1985 0.953874 12.1407 0.994171 12.0926 1.04478L6.49888 6.91594L0.907407 1.04478C0.859331 0.994171 0.801462 0.953874 0.737322 0.926338C0.673181 0.898801 0.604109 0.884601 0.534307 0.884601C0.464505 0.884601 0.395432 0.898801 0.331292 0.926338C0.267151 0.953874 0.209282 0.994171 0.161206 1.04478L0.154493 1.05149C0.0553226 1.15552 0 1.29373 0 1.43746C0 1.58118 0.0553226 1.71939 0.154493 1.82342L6.09502 8.05817C6.14726 8.113 6.21009 8.15666 6.2797 8.18648C6.34932 8.21631 6.42427 8.23169 6.5 8.23169C6.57574 8.23169 6.65068 8.21631 6.7203 8.18648C6.78991 8.15666 6.85274 8.113 6.90498 8.05817Z" fill="#444050"/>
</svg>
