<svg width="16" height="17" viewBox="0 0 16 17" fill="none" xmlns="http://www.w3.org/2000/svg">
<g clip-path="url(#clip0_1759_12357)">
<path d="M8 1.09172L8.34667 0.686385C8.25006 0.603756 8.12712 0.55835 8 0.55835C7.87288 0.55835 7.74994 0.603756 7.65333 0.686385L8 1.09172ZM0.533333 7.49172L0.186667 7.08638L0 7.24638V7.49172H0.533333ZM5.86667 16.0251V16.5584C6.00812 16.5584 6.14377 16.5022 6.24379 16.4022C6.34381 16.3022 6.4 16.1665 6.4 16.0251H5.86667ZM10.1333 16.0251H9.6C9.6 16.1665 9.65619 16.3022 9.75621 16.4022C9.85623 16.5022 9.99189 16.5584 10.1333 16.5584V16.0251ZM15.4667 7.49172H16V7.24638L15.8133 7.08638L15.4667 7.49172ZM1.6 16.5584H5.86667V15.4917H1.6V16.5584ZM15.8133 7.08638L8.34667 0.686385L7.65333 1.49705L15.12 7.89705L15.8133 7.08638ZM7.65333 0.686385L0.186667 7.08638L0.88 7.89705L8.34667 1.49705L7.65333 0.686385ZM6.4 16.0251V12.8251H5.33333V16.0251H6.4ZM9.6 12.8251V16.0251H10.6667V12.8251H9.6ZM10.1333 16.5584H14.4V15.4917H10.1333V16.5584ZM16 14.9584V7.49172H14.9333V14.9584H16ZM0 7.49172V14.9584H1.06667V7.49172H0ZM8 11.225C8.42435 11.225 8.83131 11.3936 9.13137 11.6937C9.43143 11.9937 9.6 12.4007 9.6 12.8251H10.6667C10.6667 12.1178 10.3857 11.4395 9.88562 10.9394C9.38552 10.4393 8.70724 10.1584 8 10.1584V11.225ZM8 10.1584C7.29276 10.1584 6.61448 10.4393 6.11438 10.9394C5.61428 11.4395 5.33333 12.1178 5.33333 12.8251H6.4C6.4 12.4007 6.56857 11.9937 6.86863 11.6937C7.16869 11.3936 7.57565 11.225 8 11.225V10.1584ZM14.4 16.5584C14.8243 16.5584 15.2313 16.3898 15.5314 16.0898C15.8314 15.7897 16 15.3827 16 14.9584H14.9333C14.9333 15.0998 14.8771 15.2355 14.7771 15.3355C14.6771 15.4355 14.5414 15.4917 14.4 15.4917V16.5584ZM1.6 15.4917C1.45855 15.4917 1.3229 15.4355 1.22288 15.3355C1.12286 15.2355 1.06667 15.0998 1.06667 14.9584H0C0 15.3827 0.168571 15.7897 0.468629 16.0898C0.768687 16.3898 1.17565 16.5584 1.6 16.5584V15.4917Z" fill="#6D6B77"/>
</g>
<defs>
<clipPath id="clip0_1759_12357">
<rect width="16" height="16" fill="white" transform="translate(0 0.55835)"/>
</clipPath>
</defs>
</svg>
