<svg width="18" height="19" viewBox="0 0 18 19" fill="none" xmlns="http://www.w3.org/2000/svg">
<path d="M1.8 15.874H7.4M7.4 15.874C7.4 16.3207 7.56857 16.7491 7.86863 17.0649C8.16869 17.3808 8.57565 17.5582 9 17.5582C9.42435 17.5582 9.83131 17.3808 10.1314 17.0649C10.4314 16.7491 10.6 16.3207 10.6 15.874M7.4 15.874C7.4 15.4273 7.56857 14.9989 7.86863 14.6831C8.16869 14.3672 8.57565 14.1898 9 14.1898M10.6 15.874H16.2M10.6 15.874C10.6 15.4273 10.4314 14.9989 10.1314 14.6831C9.83131 14.3672 9.42435 14.1898 9 14.1898M9 14.1898V12.5056M5.8 12.5089H4.7256C2.668 12.5056 1 10.8155 1 8.73038C1 6.64532 2.668 4.95605 4.7256 4.95605C5.04 3.47225 6.1608 2.26129 7.6656 1.77876C9.1696 1.29708 10.8304 1.61624 12.0208 2.62087C13.2112 3.62298 13.7504 5.1531 13.4368 6.6369H14.2288C15.7592 6.6369 17 7.95059 17 9.5725C17 11.1944 15.7592 12.5089 14.228 12.5089H12.2" stroke="#6D6B77" stroke-width="1.3" stroke-linecap="round" stroke-linejoin="round"/>
</svg>
