<svg width="16" height="17" viewBox="0 0 16 17" fill="none" xmlns="http://www.w3.org/2000/svg">
<path d="M0 1.55811C0 1.29289 0.105357 1.03853 0.292893 0.850999C0.48043 0.663462 0.734784 0.558105 1 0.558105H6C6.26522 0.558105 6.51957 0.663462 6.70711 0.850999C6.89464 1.03853 7 1.29289 7 1.55811V3.55811C7 3.82332 6.89464 4.07768 6.70711 4.26521C6.51957 4.45275 6.26522 4.55811 6 4.55811H1C0.734784 4.55811 0.48043 4.45275 0.292893 4.26521C0.105357 4.07768 0 3.82332 0 3.55811V1.55811ZM6 1.55811H1V3.55811H6V1.55811ZM0 7.55811C0 7.29289 0.105357 7.03854 0.292893 6.851C0.48043 6.66346 0.734784 6.55811 1 6.55811H6C6.26522 6.55811 6.51957 6.66346 6.70711 6.851C6.89464 7.03854 7 7.29289 7 7.55811V9.55811C7 9.82332 6.89464 10.0777 6.70711 10.2652C6.51957 10.4527 6.26522 10.5581 6 10.5581H1C0.734784 10.5581 0.48043 10.4527 0.292893 10.2652C0.105357 10.0777 0 9.82332 0 9.55811V7.55811ZM6 7.55811H1V9.55811H6V7.55811ZM1 12.5581C0.734784 12.5581 0.48043 12.6635 0.292893 12.851C0.105357 13.0385 0 13.2929 0 13.5581V15.5581C0 15.8233 0.105357 16.0777 0.292893 16.2652C0.48043 16.4527 0.734784 16.5581 1 16.5581H6C6.26522 16.5581 6.51957 16.4527 6.70711 16.2652C6.89464 16.0777 7 15.8233 7 15.5581V13.5581C7 13.2929 6.89464 13.0385 6.70711 12.851C6.51957 12.6635 6.26522 12.5581 6 12.5581H1ZM1 13.5581H6V15.5581H1V13.5581ZM9 1.55811C9 1.29289 9.10536 1.03853 9.29289 0.850999C9.48043 0.663462 9.73478 0.558105 10 0.558105H15C15.2652 0.558105 15.5196 0.663462 15.7071 0.850999C15.8946 1.03853 16 1.29289 16 1.55811V3.55811C16 3.82332 15.8946 4.07768 15.7071 4.26521C15.5196 4.45275 15.2652 4.55811 15 4.55811H10C9.73478 4.55811 9.48043 4.45275 9.29289 4.26521C9.10536 4.07768 9 3.82332 9 3.55811V1.55811ZM15 1.55811H10V3.55811H15V1.55811ZM10 6.55811C9.73478 6.55811 9.48043 6.66346 9.29289 6.851C9.10536 7.03854 9 7.29289 9 7.55811V9.55811C9 9.82332 9.10536 10.0777 9.29289 10.2652C9.48043 10.4527 9.73478 10.5581 10 10.5581H15C15.2652 10.5581 15.5196 10.4527 15.7071 10.2652C15.8946 10.0777 16 9.82332 16 9.55811V7.55811C16 7.29289 15.8946 7.03854 15.7071 6.851C15.5196 6.66346 15.2652 6.55811 15 6.55811H10ZM10 7.55811H15V9.55811H10V7.55811Z" fill="#6D6B77"/>
</svg>
