<svg width="18" height="18" viewBox="0 0 18 18" fill="none" xmlns="http://www.w3.org/2000/svg">
<path d="M17 3.41549C17 3.7907 16.7931 4.16223 16.391 4.50887C15.989 4.85552 15.3997 5.17049 14.6569 5.4358C13.914 5.70111 13.0321 5.91156 12.0615 6.05515C11.0909 6.19873 10.0506 6.27264 9 6.27264C6.87827 6.27264 4.84344 5.97162 3.34315 5.4358C1.84285 4.89998 1 4.17325 1 3.41549C1 3.04029 1.20693 2.66876 1.60896 2.32211C2.011 1.97547 2.60028 1.6605 3.34315 1.39519C4.08601 1.12988 4.96793 0.919421 5.93853 0.775837C6.90914 0.632252 7.94943 0.55835 9 0.55835C10.0506 0.55835 11.0909 0.632252 12.0615 0.775837C13.0321 0.919421 13.914 1.12988 14.6569 1.39519C15.3997 1.6605 15.989 1.97547 16.391 2.32211C16.7931 2.66876 17 3.04029 17 3.41549Z" stroke="#6D6B77" stroke-linecap="round" stroke-linejoin="round"/>
<path d="M17 13.7012C17 14.2027 16.6304 14.6954 15.9282 15.1297C15.2261 15.5641 14.2162 15.9248 13 16.1755C11.7838 16.4263 10.4043 16.5583 9 16.5583C7.59571 16.5583 6.21615 16.4263 5 16.1755C3.78385 15.9248 2.77394 15.5641 2.0718 15.1297C1.36965 14.6954 1 14.2027 1 13.7012" stroke="#6D6B77" stroke-linecap="round" stroke-linejoin="round"/>
<path d="M17 10.2727C17 10.7742 16.6303 11.2669 15.9282 11.7013C15.2261 12.1356 14.2162 12.4963 13 12.7471C11.7838 12.9978 10.4043 13.1298 9 13.1298C7.59571 13.1298 6.21615 12.9978 5 12.7471C3.78385 12.4963 2.77394 12.1356 2.0718 11.7013C1.36965 11.2669 1 10.7742 1 10.2727" stroke="#6D6B77" stroke-linecap="round" stroke-linejoin="round"/>
<path d="M17 6.84399C17 7.34553 16.6304 7.83823 15.9282 8.27257C15.2261 8.70691 14.2162 9.06759 13 9.31835C11.7838 9.56912 10.4043 9.70114 9 9.70114C7.59571 9.70114 6.21615 9.56912 5 9.31835C3.78385 9.06759 2.77394 8.70691 2.0718 8.27257C1.36965 7.83823 1 7.34553 1 6.84399" stroke="#6D6B77" stroke-linecap="round" stroke-linejoin="round"/>
<path d="M1 3.41553V13.7012" stroke="#6D6B77" stroke-linecap="round" stroke-linejoin="round"/>
<path d="M17 3.41553V13.7012" stroke="#6D6B77" stroke-linecap="round" stroke-linejoin="round"/>
</svg>
