<svg width="16" height="17" viewBox="0 0 16 17" fill="none" xmlns="http://www.w3.org/2000/svg">
<g clip-path="url(#clip0_1759_6882)">
<path d="M4 7.55823H7V16.5582H4V7.55823ZM5 15.5582H6V8.55823H5V15.5582ZM8 9.55823H11V16.5582H8V9.55823ZM9 15.5582H10V10.5582H9V15.5582ZM0 11.5582H3V16.5582H0V11.5582ZM1 15.5582H2V12.5582H1V15.5582ZM12 5.55823H15V16.5582H12V5.55823ZM13 15.5582H14V6.55823H13V15.5582ZM10.8516 5.40979C10.9505 5.62333 11 5.83948 11 6.05823C11 6.26656 10.9609 6.46187 10.8828 6.64417C10.8047 6.82646 10.6979 6.98531 10.5625 7.12073C10.4271 7.25614 10.2682 7.36292 10.0859 7.44104C9.90365 7.51917 9.70833 7.55823 9.5 7.55823C9.29167 7.55823 9.09635 7.51917 8.91406 7.44104C8.73177 7.36292 8.57292 7.25614 8.4375 7.12073C8.30208 6.98531 8.19531 6.82646 8.11719 6.64417C8.03906 6.46187 8 6.26656 8 6.05823V5.96448C8 5.93323 8.0026 5.90198 8.00781 5.87073L6.53906 5.13635C6.40365 5.27177 6.24479 5.37594 6.0625 5.44885C5.88021 5.52177 5.69271 5.55823 5.5 5.55823C5.28125 5.55823 5.0651 5.50875 4.85156 5.40979L2.85156 7.40979C2.95052 7.62333 3 7.83948 3 8.05823C3 8.26656 2.96094 8.46187 2.88281 8.64417C2.80469 8.82646 2.69792 8.98531 2.5625 9.12073C2.42708 9.25614 2.26823 9.36292 2.08594 9.44104C1.90365 9.51917 1.70833 9.55823 1.5 9.55823C1.29167 9.55823 1.09635 9.51917 0.914062 9.44104C0.731771 9.36292 0.572917 9.25614 0.4375 9.12073C0.302083 8.98531 0.195312 8.82646 0.117188 8.64417C0.0390625 8.46187 0 8.26656 0 8.05823C0 7.84989 0.0390625 7.65458 0.117188 7.47229C0.195312 7.29 0.302083 7.13114 0.4375 6.99573C0.572917 6.86031 0.731771 6.75354 0.914062 6.67542C1.09635 6.59729 1.29167 6.55823 1.5 6.55823C1.71875 6.55823 1.9349 6.60771 2.14844 6.70667L4.14844 4.70667C4.04948 4.49312 4 4.27698 4 4.05823C4 3.84989 4.03906 3.65458 4.11719 3.47229C4.19531 3.29 4.30208 3.13114 4.4375 2.99573C4.57292 2.86031 4.73177 2.75354 4.91406 2.67542C5.09635 2.59729 5.29167 2.55823 5.5 2.55823C5.70833 2.55823 5.90365 2.59729 6.08594 2.67542C6.26823 2.75354 6.42708 2.86031 6.5625 2.99573C6.69792 3.13114 6.80469 3.29 6.88281 3.47229C6.96094 3.65458 7 3.84989 7 4.05823V4.15198C7 4.18323 6.9974 4.21448 6.99219 4.24573L8.46094 4.9801C8.59635 4.84469 8.75521 4.74052 8.9375 4.6676C9.11979 4.59469 9.30729 4.55823 9.5 4.55823C9.71875 4.55823 9.9349 4.60771 10.1484 4.70667L12.1484 2.70667C12.0495 2.49312 12 2.27698 12 2.05823C12 1.84989 12.0391 1.65458 12.1172 1.47229C12.1953 1.29 12.3021 1.13114 12.4375 0.995728C12.5729 0.860311 12.7318 0.75354 12.9141 0.675415C13.0964 0.59729 13.2917 0.558228 13.5 0.558228C13.7083 0.558228 13.9036 0.59729 14.0859 0.675415C14.2682 0.75354 14.4271 0.860311 14.5625 0.995728C14.6979 1.13114 14.8047 1.29 14.8828 1.47229C14.9609 1.65458 15 1.84989 15 2.05823C15 2.26656 14.9609 2.46187 14.8828 2.64417C14.8047 2.82646 14.6979 2.98531 14.5625 3.12073C14.4271 3.25614 14.2682 3.36292 14.0859 3.44104C13.9036 3.51917 13.7083 3.55823 13.5 3.55823C13.2812 3.55823 13.0651 3.50875 12.8516 3.40979L10.8516 5.40979ZM1.5 8.55823C1.63542 8.55823 1.7526 8.50875 1.85156 8.40979C1.95052 8.31083 2 8.19364 2 8.05823C2 7.92281 1.95052 7.80562 1.85156 7.70667C1.7526 7.60771 1.63542 7.55823 1.5 7.55823C1.36458 7.55823 1.2474 7.60771 1.14844 7.70667C1.04948 7.80562 1 7.92281 1 8.05823C1 8.19364 1.04948 8.31083 1.14844 8.40979C1.2474 8.50875 1.36458 8.55823 1.5 8.55823ZM13.5 1.55823C13.3646 1.55823 13.2474 1.60771 13.1484 1.70667C13.0495 1.80562 13 1.92281 13 2.05823C13 2.19364 13.0495 2.31083 13.1484 2.40979C13.2474 2.50875 13.3646 2.55823 13.5 2.55823C13.6354 2.55823 13.7526 2.50875 13.8516 2.40979C13.9505 2.31083 14 2.19364 14 2.05823C14 1.92281 13.9505 1.80562 13.8516 1.70667C13.7526 1.60771 13.6354 1.55823 13.5 1.55823ZM5.5 4.55823C5.63542 4.55823 5.7526 4.50875 5.85156 4.40979C5.95052 4.31083 6 4.19364 6 4.05823C6 3.92281 5.95052 3.80562 5.85156 3.70667C5.7526 3.60771 5.63542 3.55823 5.5 3.55823C5.36458 3.55823 5.2474 3.60771 5.14844 3.70667C5.04948 3.80562 5 3.92281 5 4.05823C5 4.19364 5.04948 4.31083 5.14844 4.40979C5.2474 4.50875 5.36458 4.55823 5.5 4.55823ZM9.5 6.55823C9.63542 6.55823 9.7526 6.50875 9.85156 6.40979C9.95052 6.31083 10 6.19364 10 6.05823C10 5.92281 9.95052 5.80562 9.85156 5.70667C9.7526 5.60771 9.63542 5.55823 9.5 5.55823C9.36458 5.55823 9.2474 5.60771 9.14844 5.70667C9.04948 5.80562 9 5.92281 9 6.05823C9 6.19364 9.04948 6.31083 9.14844 6.40979C9.2474 6.50875 9.36458 6.55823 9.5 6.55823Z" fill="#6D6B77"/>
</g>
<defs>
<clipPath id="clip0_1759_6882">
<rect width="16" height="16" fill="white" transform="translate(0 0.558228)"/>
</clipPath>
</defs>
</svg>
