<svg width="15" height="16" viewBox="0 0 15 16" fill="none" xmlns="http://www.w3.org/2000/svg">
<path d="M2.70745 15.8852C2.25945 15.8852 1.87811 15.7279 1.56345 15.4132C1.24878 15.0986 1.09145 14.7176 1.09145 14.2702V1.88523H0.0914459V0.885234H4.09145V0.115234H10.0914V0.885234H14.0914V1.88523H13.0914V14.2702C13.0914 14.7302 12.9374 15.1146 12.6294 15.4232C12.3214 15.7319 11.9368 15.8859 11.4754 15.8852H2.70745ZM12.0914 1.88523H2.09145V14.2702C2.09145 14.4496 2.14911 14.5969 2.26445 14.7122C2.37978 14.8276 2.52745 14.8852 2.70745 14.8852H11.4764C11.6298 14.8852 11.7708 14.8212 11.8994 14.6932C12.0281 14.5652 12.0921 14.4239 12.0914 14.2692V1.88523ZM4.89945 12.8852H5.89945V3.88523H4.89945V12.8852ZM8.28345 12.8852H9.28345V3.88523H8.28345V12.8852Z" fill="#FF4C51"/>
</svg>
