<svg width="17" height="16" viewBox="0 0 17 16" fill="none" xmlns="http://www.w3.org/2000/svg">
<path d="M0.5 12.9998V15.2928C0.5 15.4254 0.552679 15.5526 0.646447 15.6464C0.740215 15.7401 0.867392 15.7928 1 15.7928H3.298C3.43035 15.7928 3.55729 15.7403 3.651 15.6468L13.099 6.19882L10.099 3.19882L0.647 12.6468C0.553165 12.7404 0.500293 12.8673 0.5 12.9998ZM11.337 1.95982L14.337 4.95982L15.797 3.49982C15.9845 3.31229 16.0898 3.05798 16.0898 2.79282C16.0898 2.52765 15.9845 2.27335 15.797 2.08582L14.212 0.499817C14.0245 0.312346 13.7702 0.207031 13.505 0.207031C13.2398 0.207031 12.9855 0.312346 12.798 0.499817L11.337 1.95982Z" fill="#FF9F43"/>
</svg>
