<svg width="20" height="14" viewBox="0 0 20 14" fill="none" xmlns="http://www.w3.org/2000/svg">
<path fill-rule="evenodd" clip-rule="evenodd" d="M19.0914 7C19.0914 6.61108 18.8813 6.3565 18.4609 5.84517C16.9226 3.9775 13.5296 0.5 9.59062 0.5C5.65162 0.5 2.25862 3.9775 0.720283 5.84517C0.299949 6.3565 0.0897827 6.61108 0.0897827 7C0.0897827 7.38892 0.299949 7.6435 0.720283 8.15483C2.25862 10.0225 5.65162 13.5 9.59062 13.5C13.5296 13.5 16.9226 10.0225 18.4609 8.15483C18.8813 7.6435 19.0914 7.38892 19.0914 7ZM9.59062 10.25C10.4526 10.25 11.2792 9.90759 11.8887 9.2981C12.4982 8.6886 12.8406 7.86195 12.8406 7C12.8406 6.13805 12.4982 5.3114 11.8887 4.7019C11.2792 4.09241 10.4526 3.75 9.59062 3.75C8.72866 3.75 7.90201 4.09241 7.29252 4.7019C6.68302 5.3114 6.34062 6.13805 6.34062 7C6.34062 7.86195 6.68302 8.6886 7.29252 9.2981C7.90201 9.90759 8.72866 10.25 9.59062 10.25Z" fill="#00BAD1"/>
</svg>
